<?xml version="1.0" encoding="utf-8"?>
<!-- Generator: Adobe Illustrator 24.0.1, SVG Export Plug-In . SVG Version: 6.00 Build 0)  -->
<svg version="1.1" id="Layer_1" focusable="false" xmlns="http://www.w3.org/2000/svg" xmlns:xlink="http://www.w3.org/1999/xlink"
	 x="0px" y="0px" viewBox="0 0 448 512" style="enable-background:new 0 0 448 512;" xml:space="preserve">
<style type="text/css">
	.st0{fill:#BCBEC0;}
</style>
<path class="st0" d="M400,32H48C21.49,32,0,53.49,0,80v352c0,26.51,21.49,48,48,48h352c26.51,0,48-21.49,48-48V80
	C448,53.49,426.51,32,400,32z M178.12,262.1C87.43,196.29,88.35,196.12,64,177.17V152c0-13.26,10.75-24,24-24h272
	c13.26,0,24,10.75,24,24v25.17c-24.37,18.97-23.43,19.12-114.12,84.94c-10.5,7.65-31.39,26.12-45.88,25.89
	C209.5,288.22,188.63,269.77,178.12,262.1z M384,217.77V360c0,13.26-10.74,24-24,24H88c-13.25,0-24-10.74-24-24V217.77
	c13.96,10.79,33.33,25.24,95.3,70.21c14.16,10.34,37.98,32.14,64.69,32.01c26.89,0.13,51.04-22.04,64.72-32.02
	C350.68,243.01,370.04,228.57,384,217.77z"/>
</svg>
