<?xml version="1.0" encoding="utf-8"?>
<!-- Generator: Adobe Illustrator 24.0.1, SVG Export Plug-In . SVG Version: 6.00 Build 0)  -->
<svg version="1.1" id="Layer_1" xmlns="http://www.w3.org/2000/svg" xmlns:xlink="http://www.w3.org/1999/xlink" x="0px" y="0px"
	 viewBox="0 0 197.54 63.19" style="enable-background:new 0 0 197.54 63.19;" xml:space="preserve">
<style type="text/css">
	.st0{fill:#BCBEC0;}
</style>
<g>
	<path class="st0" d="M7.52,16.72c0,0.22,0,0.37,0,0.46s0.01,0.24,0.02,0.44c0.02,0.2,0.04,0.34,0.06,0.43
		c0.03,0.09,0.07,0.21,0.12,0.37c0.06,0.16,0.13,0.27,0.21,0.35s0.18,0.16,0.31,0.26c0.12,0.1,0.27,0.18,0.43,0.22
		c0.16,0.05,0.36,0.09,0.58,0.12c0.23,0.04,0.48,0.05,0.75,0.05v5.52H0v-5.52c0.28,0,0.53-0.02,0.75-0.06
		c0.23-0.04,0.42-0.09,0.58-0.14c0.16-0.05,0.31-0.14,0.44-0.26c0.13-0.12,0.23-0.23,0.32-0.33c0.08-0.1,0.15-0.25,0.21-0.45
		c0.06-0.21,0.1-0.37,0.13-0.51c0.03-0.13,0.05-0.34,0.07-0.62c0.02-0.28,0.02-0.51,0.02-0.68c0-0.17,0-0.43,0-0.78V5.41h-2.57
		l-0.02-5.43h12.84l4.77,11.8l4.25-11.8h12.06v5.43h-2.26v14.01h2.37v5.52H21.61v-5.52h1.89V9.92l-5.26,15.03h-4.32L7.52,9.58V16.72
		z"/>
	<path class="st0" d="M58.45,18.07c0.08,0.32,0.15,0.56,0.21,0.72c0.06,0.16,0.14,0.31,0.25,0.44c0.11,0.13,0.25,0.19,0.4,0.19h1.32
		v5.52H47.93l-0.02-5.52h1.85c0-1.68-0.34-2.52-1.03-2.52H44.5c-0.13,0-0.24,0.05-0.31,0.16c-0.07,0.11-0.11,0.22-0.12,0.33
		c-0.01,0.11-0.02,0.28-0.03,0.49c0,0.29,0.06,0.62,0.17,0.98s0.28,0.55,0.49,0.55h1.29v5.52H35.56v-5.52c0.45,0,0.85-0.04,1.2-0.12
		c0.8-0.19,1.37-0.68,1.71-1.46c0.11-0.25,0.31-0.91,0.58-1.98L41.7,5.41h-3.26v-5.43h15.29L58.45,18.07z M48.44,13.06l-1.8-7.81
		l-1.72,7.81H48.44z"/>
	<path class="st0" d="M74.8,24.95c-2.71,0-6.86,0-12.46,0.02v-5.54h2.37V5.41h-2.38v-5.43h15.61c1.26,0,2.38,0.12,3.35,0.37
		c0.97,0.25,1.82,0.64,2.55,1.18c0.73,0.54,1.29,1.26,1.67,2.17c0.38,0.91,0.57,1.99,0.57,3.25c0,1.49-0.48,2.71-1.44,3.66
		c-0.96,0.95-2.32,1.59-4.08,1.92c1.53,0.35,2.62,0.84,3.28,1.46s0.98,1.41,0.98,2.35v1.43c0,0.3,0.02,0.53,0.07,0.71
		c0.05,0.17,0.15,0.34,0.32,0.5c0.16,0.16,0.42,0.27,0.76,0.34c0.34,0.07,0.8,0.1,1.38,0.1v5.52H83.3c-0.4,0-0.72,0-0.95-0.01
		c-0.23,0-0.54-0.02-0.92-0.04c-0.38-0.02-0.69-0.05-0.93-0.1c-0.24-0.05-0.52-0.12-0.84-0.21c-0.32-0.09-0.58-0.2-0.78-0.33
		c-0.2-0.13-0.41-0.29-0.63-0.49c-0.22-0.2-0.39-0.43-0.52-0.68c-0.12-0.26-0.23-0.56-0.31-0.92c-0.08-0.35-0.12-0.74-0.12-1.16v-3
		c0-0.6-0.03-1.11-0.1-1.51c-0.07-0.41-0.19-0.79-0.38-1.15c-0.19-0.36-0.48-0.63-0.87-0.81c-0.39-0.17-0.89-0.26-1.51-0.26h-1.51
		v5.15h1.86V24.95z M73.78,10.8c0.52,0,1-0.04,1.42-0.12c0.43-0.08,0.83-0.22,1.21-0.42s0.68-0.48,0.89-0.85s0.32-0.81,0.32-1.32
		c0-0.81-0.26-1.46-0.78-1.95c-0.52-0.49-1.23-0.73-2.15-0.73h-1.86v5.38H73.78z"/>
	<path class="st0" d="M106.44,10.11l-0.95-4.69h-1.63v14h2.52v5.54h-13.7v-5.54h2.52v-14h-1.54l-0.98,4.69h-4.32V0h22.41v10.11
		H106.44z"/>
	<path class="st0" d="M137.38,12.52c0,2.41-0.55,4.6-1.65,6.57c-1.1,1.97-2.62,3.51-4.54,4.63s-4.07,1.68-6.41,1.68
		s-4.49-0.56-6.41-1.68c-1.93-1.12-3.44-2.66-4.55-4.63c-1.1-1.97-1.65-4.16-1.65-6.57c0-2.65,0.55-4.96,1.65-6.94
		c1.1-1.98,2.6-3.49,4.49-4.51c1.89-1.03,4.06-1.54,6.5-1.54c2.4,0,4.55,0.51,6.44,1.54c1.89,1.03,3.39,2.53,4.49,4.51
		C136.83,7.56,137.38,9.88,137.38,12.52z M124.77,20.04c0.4,0,0.76-0.07,1.08-0.2s0.59-0.32,0.81-0.55s0.41-0.51,0.58-0.83
		s0.29-0.66,0.38-1.04c0.09-0.37,0.17-0.76,0.23-1.16s0.1-0.8,0.12-1.21c0.02-0.4,0.03-0.8,0.04-1.19c0.01-0.39,0.01-0.76,0-1.11
		c0-0.21,0-0.36,0-0.46c0-0.11,0-0.29,0-0.54c-0.01-0.37-0.01-0.76,0-1.17s-0.01-0.83-0.05-1.27c-0.05-0.44-0.1-0.86-0.17-1.27
		c-0.07-0.41-0.18-0.8-0.35-1.17s-0.36-0.69-0.58-0.97c-0.22-0.28-0.51-0.49-0.87-0.65s-0.76-0.24-1.22-0.24
		c-0.4,0-0.76,0.06-1.08,0.18c-0.32,0.12-0.59,0.29-0.81,0.52s-0.41,0.48-0.58,0.77c-0.17,0.29-0.3,0.61-0.38,0.95
		c-0.09,0.34-0.16,0.7-0.23,1.08c-0.07,0.37-0.11,0.75-0.12,1.12c-0.01,0.37-0.02,0.74-0.04,1.1c-0.02,0.36-0.01,0.7,0.01,1.02
		c0,0.25,0,0.43,0,0.54c0,0.1,0,0.26,0,0.46c0.01,0.31,0.01,0.63,0,0.97s0,0.69,0.02,1.05c0.03,0.36,0.05,0.73,0.08,1.08
		c0.03,0.36,0.08,0.71,0.16,1.06c0.08,0.35,0.17,0.68,0.27,0.98c0.1,0.31,0.24,0.59,0.4,0.85c0.16,0.26,0.35,0.49,0.56,0.68
		c0.21,0.19,0.46,0.34,0.76,0.45C124.1,19.99,124.42,20.04,124.77,20.04z"/>
	<path class="st0" d="M165.65,5.41c-0.87,0-1.49,0.2-1.87,0.6c-0.37,0.4-0.56,0.98-0.56,1.74v17.2h-9.32l-7.27-13.97v6.17
		c0,0.84,0.19,1.43,0.56,1.77c0.37,0.34,1,0.51,1.87,0.51v5.52h-9.8v-5.52c0.47,0,0.87-0.06,1.19-0.17c0.32-0.11,0.57-0.25,0.74-0.4
		c0.17-0.15,0.3-0.38,0.38-0.67c0.09-0.29,0.14-0.55,0.16-0.78c0.02-0.23,0.03-0.53,0.03-0.92V5.38h-2.42v-5.4h11.31L158.29,15V7.78
		c0-0.25,0-0.43-0.01-0.55s-0.03-0.3-0.06-0.53c-0.04-0.23-0.1-0.41-0.21-0.54c-0.1-0.13-0.24-0.26-0.41-0.4
		c-0.17-0.14-0.4-0.23-0.7-0.28c-0.3-0.05-0.65-0.07-1.05-0.06v-5.43l9.8,0.02V5.41z"/>
	<path class="st0" d="M12.49,62.75c-2.71,0-6.86,0-12.46,0.02v-5.54H2.4V43.21H0.02v-5.43h15.61c1.26,0,2.38,0.12,3.35,0.37
		c0.97,0.25,1.82,0.64,2.55,1.18c0.73,0.54,1.29,1.26,1.67,2.17c0.38,0.91,0.57,1.99,0.57,3.25c0,1.49-0.48,2.71-1.44,3.66
		c-0.96,0.95-2.32,1.59-4.08,1.92c1.53,0.35,2.62,0.84,3.28,1.46s0.98,1.41,0.98,2.35v1.43c0,0.3,0.02,0.53,0.07,0.71
		c0.05,0.17,0.15,0.34,0.32,0.5c0.16,0.16,0.42,0.27,0.76,0.34c0.34,0.07,0.8,0.1,1.38,0.1v5.52H21c-0.4,0-0.72,0-0.95-0.01
		c-0.23,0-0.54-0.02-0.92-0.04c-0.38-0.02-0.69-0.05-0.93-0.1c-0.24-0.05-0.52-0.12-0.84-0.21c-0.32-0.09-0.58-0.2-0.78-0.33
		c-0.2-0.13-0.41-0.29-0.63-0.49c-0.22-0.2-0.39-0.43-0.52-0.68c-0.12-0.26-0.23-0.56-0.31-0.92C15.04,59.62,15,59.23,15,58.81v-3
		c0-0.6-0.03-1.11-0.1-1.51c-0.07-0.41-0.19-0.79-0.38-1.15c-0.19-0.36-0.48-0.63-0.87-0.81c-0.39-0.17-0.89-0.26-1.51-0.26h-1.51
		v5.15h1.86V62.75z M11.47,48.6c0.52,0,1-0.04,1.42-0.12c0.43-0.08,0.83-0.22,1.21-0.42s0.68-0.48,0.89-0.85s0.32-0.81,0.32-1.32
		c0-0.81-0.26-1.46-0.78-1.95c-0.52-0.49-1.23-0.73-2.15-0.73h-1.86v5.38H11.47z"/>
	<path class="st0" d="M51.4,50.32c0,2.41-0.55,4.6-1.65,6.57c-1.1,1.97-2.62,3.51-4.54,4.63s-4.07,1.68-6.41,1.68
		s-4.49-0.56-6.41-1.68c-1.93-1.12-3.44-2.66-4.55-4.63c-1.1-1.97-1.65-4.16-1.65-6.57c0-2.65,0.55-4.96,1.65-6.94
		c1.1-1.98,2.6-3.49,4.49-4.51c1.89-1.03,4.06-1.54,6.5-1.54c2.4,0,4.55,0.51,6.44,1.54c1.89,1.03,3.39,2.53,4.49,4.51
		C50.85,45.36,51.4,47.68,51.4,50.32z M38.79,57.84c0.4,0,0.76-0.07,1.08-0.2s0.59-0.32,0.81-0.55s0.41-0.51,0.58-0.83
		s0.29-0.66,0.38-1.04c0.09-0.37,0.17-0.76,0.23-1.16s0.1-0.8,0.12-1.21c0.02-0.4,0.03-0.8,0.04-1.19c0.01-0.39,0.01-0.76,0-1.11
		c0-0.21,0-0.36,0-0.46c0-0.11,0-0.29,0-0.54c-0.01-0.37-0.01-0.76,0-1.17s-0.01-0.83-0.05-1.27c-0.05-0.44-0.1-0.86-0.17-1.27
		c-0.07-0.41-0.18-0.8-0.35-1.17s-0.36-0.69-0.58-0.97c-0.22-0.28-0.51-0.49-0.87-0.65s-0.76-0.24-1.22-0.24
		c-0.4,0-0.76,0.06-1.08,0.18c-0.32,0.12-0.59,0.29-0.81,0.52s-0.41,0.48-0.58,0.77c-0.17,0.29-0.3,0.61-0.38,0.95
		c-0.09,0.34-0.16,0.7-0.23,1.08c-0.07,0.37-0.11,0.75-0.12,1.12c-0.01,0.37-0.02,0.74-0.04,1.1c-0.02,0.36-0.01,0.7,0.01,1.02
		c0,0.25,0,0.43,0,0.54c0,0.1,0,0.26,0,0.46c0.01,0.31,0.01,0.63,0,0.97s0,0.69,0.02,1.05c0.03,0.36,0.05,0.73,0.08,1.08
		c0.03,0.36,0.08,0.71,0.16,1.06c0.08,0.35,0.17,0.68,0.27,0.98c0.1,0.31,0.24,0.59,0.4,0.85c0.16,0.26,0.35,0.49,0.56,0.68
		c0.21,0.19,0.46,0.34,0.76,0.45C38.12,57.79,38.44,57.84,38.79,57.84z"/>
	<path class="st0" d="M53.17,57.23h2.65l0.02-14.01h-2.55V37.8l12.52-0.02c1.25,0,2.35,0.05,3.3,0.16c0.95,0.11,1.85,0.31,2.69,0.59
		c0.85,0.29,1.54,0.67,2.08,1.15c0.54,0.48,0.96,1.1,1.27,1.86c0.31,0.76,0.46,1.65,0.46,2.68c0,1.27-0.35,2.39-1.05,3.36
		c-0.7,0.97-1.6,1.66-2.72,2.08v0.03c1.54,0.44,2.73,1.21,3.57,2.32c0.84,1.11,1.26,2.53,1.26,4.26c0,1.15-0.23,2.15-0.68,2.99
		c-0.45,0.85-1.09,1.52-1.92,2.01c-0.83,0.5-1.77,0.86-2.83,1.1c-1.06,0.24-2.25,0.35-3.58,0.35H53.17V57.23z M63.94,47.97h0.63
		c0.54,0,0.99-0.03,1.35-0.08c0.35-0.06,0.7-0.17,1.05-0.34c0.35-0.17,0.61-0.44,0.78-0.8c0.17-0.36,0.25-0.83,0.25-1.39
		c0-0.69-0.21-1.22-0.63-1.58s-0.92-0.55-1.49-0.55h-1.94V47.97z M63.94,52v5.23c0.07,0,0.18,0,0.34,0
		c0.21,0.01,0.41,0.01,0.61,0.01c0.2,0,0.39-0.01,0.58-0.02c0.19-0.01,0.37-0.03,0.55-0.05c0.17-0.03,0.34-0.06,0.5-0.09
		c0.16-0.04,0.31-0.09,0.45-0.15c0.14-0.07,0.27-0.14,0.39-0.23c0.12-0.09,0.22-0.2,0.31-0.33s0.17-0.28,0.24-0.44
		c0.07-0.16,0.12-0.35,0.15-0.56c0.04-0.22,0.05-0.45,0.05-0.71c0-0.46-0.07-0.86-0.21-1.2c-0.14-0.34-0.31-0.6-0.51-0.78
		c-0.2-0.18-0.45-0.33-0.74-0.44c-0.29-0.11-0.56-0.17-0.79-0.2c-0.24-0.03-0.5-0.04-0.8-0.04C64.96,51.98,64.58,51.99,63.94,52z"/>
	<path class="st0" d="M92.38,43.21h-2.26v14.01h2.17v5.52H79.03v-5.52h2.26V43.21h-2.2v-5.43h13.29V43.21z"/>
	<path class="st0" d="M121.88,43.21c-0.87,0-1.49,0.2-1.87,0.6c-0.37,0.4-0.56,0.98-0.56,1.74v17.2h-9.32l-7.27-13.97v6.17
		c0,0.84,0.19,1.43,0.56,1.77c0.37,0.34,1,0.51,1.87,0.51v5.52h-9.8v-5.52c0.47,0,0.87-0.06,1.19-0.17c0.32-0.11,0.57-0.25,0.74-0.4
		c0.17-0.15,0.3-0.38,0.38-0.67c0.09-0.29,0.14-0.55,0.16-0.78c0.02-0.23,0.03-0.53,0.03-0.92V43.18h-2.42v-5.4h11.31l7.63,15.01
		v-7.21c0-0.25,0-0.43-0.01-0.55s-0.03-0.3-0.06-0.53c-0.04-0.23-0.1-0.41-0.21-0.54c-0.1-0.13-0.24-0.26-0.41-0.4
		c-0.17-0.14-0.4-0.23-0.7-0.28c-0.3-0.05-0.65-0.07-1.05-0.06v-5.43l9.8,0.02V43.21z"/>
	<path class="st0" d="M140.63,37.79v7.94h-4.72c-0.18-0.8-0.59-1.51-1.23-2.12s-1.34-0.92-2.11-0.92c-0.45,0-0.81,0.12-1.06,0.35
		c-0.26,0.24-0.38,0.59-0.38,1.06c0,0.31,0.13,0.57,0.38,0.8c0.25,0.23,0.59,0.42,1.02,0.58s0.93,0.33,1.48,0.48
		c0.56,0.16,1.15,0.35,1.77,0.56c0.62,0.22,1.24,0.46,1.86,0.73c0.62,0.27,1.21,0.63,1.78,1.08c0.56,0.45,1.07,0.96,1.51,1.54
		c0.44,0.58,0.8,1.3,1.07,2.17c0.27,0.87,0.42,1.83,0.44,2.9c0.02,1.05-0.15,2.07-0.5,3.06c-0.35,1-0.85,1.88-1.48,2.65
		c-0.63,0.77-1.42,1.39-2.35,1.85c-0.94,0.47-1.95,0.7-3.02,0.7c-1.11,0-2.03-0.14-2.76-0.42c-0.73-0.28-1.5-0.76-2.3-1.44
		l-0.55,1.42h-4.97v-7.97h4.95c0.27,0.75,0.74,1.41,1.43,1.98c0.69,0.57,1.4,0.85,2.15,0.85c0.45,0,0.84-0.12,1.18-0.35
		c0.33-0.23,0.5-0.56,0.5-0.98c0-0.35-0.11-0.65-0.34-0.9c-0.23-0.25-0.47-0.43-0.72-0.55c-0.26-0.11-0.57-0.22-0.95-0.32
		c-0.61-0.17-1.14-0.34-1.6-0.48c-0.46-0.15-0.95-0.33-1.48-0.53c-0.52-0.21-0.98-0.41-1.38-0.62c-0.39-0.21-0.8-0.46-1.21-0.75
		c-0.41-0.29-0.76-0.59-1.06-0.91c-0.3-0.32-0.58-0.68-0.85-1.1c-0.27-0.42-0.48-0.86-0.65-1.33c-0.16-0.47-0.29-1-0.39-1.58
		s-0.15-1.22-0.15-1.89c0-2.44,0.6-4.38,1.79-5.83c1.19-1.45,2.94-2.17,5.22-2.17c1.98,0,3.58,0.46,4.8,1.38
		c0.04-0.12,0.21-0.43,0.49-0.92H140.63z"/>
	<path class="st0" d="M169.27,50.32c0,2.41-0.55,4.6-1.65,6.57c-1.1,1.97-2.62,3.51-4.54,4.63s-4.07,1.68-6.41,1.68
		s-4.49-0.56-6.41-1.68c-1.93-1.12-3.44-2.66-4.55-4.63c-1.1-1.97-1.65-4.16-1.65-6.57c0-2.65,0.55-4.96,1.65-6.94
		c1.1-1.98,2.6-3.49,4.49-4.51c1.89-1.03,4.06-1.54,6.5-1.54c2.4,0,4.55,0.51,6.44,1.54c1.89,1.03,3.39,2.53,4.49,4.51
		C168.72,45.36,169.27,47.68,169.27,50.32z M156.66,57.84c0.4,0,0.76-0.07,1.08-0.2s0.59-0.32,0.81-0.55s0.41-0.51,0.58-0.83
		s0.29-0.66,0.38-1.04c0.09-0.37,0.17-0.76,0.23-1.16s0.1-0.8,0.12-1.21c0.02-0.4,0.03-0.8,0.04-1.19c0.01-0.39,0.01-0.76,0-1.11
		c0-0.21,0-0.36,0-0.46c0-0.11,0-0.29,0-0.54c-0.01-0.37-0.01-0.76,0-1.17s-0.01-0.83-0.05-1.27c-0.05-0.44-0.1-0.86-0.17-1.27
		c-0.07-0.41-0.18-0.8-0.35-1.17s-0.36-0.69-0.58-0.97c-0.22-0.28-0.51-0.49-0.87-0.65s-0.76-0.24-1.22-0.24
		c-0.4,0-0.76,0.06-1.08,0.18c-0.32,0.12-0.59,0.29-0.81,0.52s-0.41,0.48-0.58,0.77c-0.17,0.29-0.3,0.61-0.38,0.95
		c-0.09,0.34-0.16,0.7-0.23,1.08c-0.07,0.37-0.11,0.75-0.12,1.12c-0.01,0.37-0.02,0.74-0.04,1.1c-0.02,0.36-0.01,0.7,0.01,1.02
		c0,0.25,0,0.43,0,0.54c0,0.1,0,0.26,0,0.46c0.01,0.31,0.01,0.63,0,0.97s0,0.69,0.02,1.05c0.03,0.36,0.05,0.73,0.08,1.08
		c0.03,0.36,0.08,0.71,0.16,1.06c0.08,0.35,0.17,0.68,0.27,0.98c0.1,0.31,0.24,0.59,0.4,0.85c0.16,0.26,0.35,0.49,0.56,0.68
		c0.21,0.19,0.46,0.34,0.76,0.45C155.98,57.79,156.31,57.84,156.66,57.84z"/>
	<path class="st0" d="M197.54,43.21c-0.87,0-1.5,0.2-1.87,0.6s-0.56,0.98-0.56,1.74v17.2h-9.32l-7.27-13.97v6.17
		c0,0.84,0.19,1.43,0.56,1.77c0.37,0.34,1,0.51,1.87,0.51v5.52h-9.8v-5.52c0.47,0,0.87-0.06,1.19-0.17c0.32-0.11,0.57-0.25,0.74-0.4
		c0.17-0.15,0.3-0.38,0.38-0.67c0.09-0.29,0.14-0.55,0.16-0.78c0.02-0.23,0.03-0.53,0.03-0.92V43.18h-2.42v-5.4h11.31l7.63,15.01
		v-7.21c0-0.25,0-0.43-0.01-0.55c-0.01-0.12-0.03-0.3-0.06-0.53c-0.04-0.23-0.11-0.41-0.21-0.54c-0.1-0.13-0.24-0.26-0.41-0.4
		c-0.17-0.14-0.4-0.23-0.7-0.28c-0.3-0.05-0.65-0.07-1.05-0.06v-5.43l9.8,0.02V43.21z"/>
</g>
</svg>
